<?xml version="1.0" encoding="UTF-8" standalone="no"?>
<!-- Created with Inkscape (http://www.inkscape.org/) -->

<svg
   version="1.1"
   id="svg2"
   width="100"
   height="100"
   viewBox="0 0 2800 2800"
   sodipodi:docname="logo.svg"
   inkscape:version="1.3.2 (091e20e, 2023-11-25, custom)"
   xmlns:inkscape="http://www.inkscape.org/namespaces/inkscape"
   xmlns:sodipodi="http://sodipodi.sourceforge.net/DTD/sodipodi-0.dtd"
   xmlns="http://www.w3.org/2000/svg"
   xmlns:svg="http://www.w3.org/2000/svg">
  <defs
     id="defs1" />
  <sodipodi:namedview
     id="namedview1"
     pagecolor="#ffffff"
     bordercolor="#000000"
     borderopacity="0.25"
     inkscape:showpageshadow="2"
     inkscape:pageopacity="0.0"
     inkscape:pagecheckerboard="0"
     inkscape:deskcolor="#d1d1d1"
     inkscape:zoom="6.0386919"
     inkscape:cx="93.149313"
     inkscape:cy="44.71167"
     inkscape:window-width="1920"
     inkscape:window-height="992"
     inkscape:window-x="5112"
     inkscape:window-y="-8"
     inkscape:window-maximized="1"
     inkscape:current-layer="g10" />
  <g
     id="g8"
     transform="matrix(3.9116148,0,0,-3.656683,-2705.2594,6026.2142)">
    <g
       id="g10"
       transform="scale(0.1)">
      <g
         id="g1"
         style="display:inline">
        <path
           d="m 10598.6,10698.5 c 284.2,86.6 438.3,197.9 462.4,334.1 173.4,-449.3 -94.4,-799 -803.2,-1049.1 -479.4,253.2 -697.48,364.7 -654.28,334.3 663.38,253.8 995.08,380.7 995.08,380.7"
           id="path14" />
        <path
           d="m 12178.7,11243.7 c -7.1,-5.8 -13.9,-12.1 -20.4,-18.6 l -13.6,-12.4 -0.7,-3.3 c -1.4,-1.7 -2.8,-3.5 -4.2,-5.2 -18.5,-93.7 -40.2,-177.9 -64.9,-252.7 -90.7,-263 -230.7,-464.4 -420,-604.3 153.1,106.9 269.3,186.3 348.4,238.4 16.2,-84.4 69.8,-122.4 160.8,-114.1 67.6,207.5 92.9,483.5 75.8,828.1 l -61.2,-55.9"
           id="path16"
           transform="translate(1.0225956e-5,-3.2816626e-4)" />
        <path
           d="m 10728.4,11929.5 c 592.1,34.7 1076,-4.5 1080.9,-87.7 4.9,-83.1 -471.2,-178.7 -1063.3,-213.4 -592.1,-34.7 -1075.98,4.5 -1080.85,87.7 -4.88,83.1 471.15,178.7 1063.25,213.4"
           id="path20"
           transform="translate(1.0225956e-5,-3.2816626e-4)" />
      </g>
      <path
         d="m 9903.96,13271.7 c 161.94,-148.5 459.34,-243.5 348.64,-507.8 -107.6,-257 -379.76,-360 -635.88,-399.9 -160.88,-25.1 -323.95,-22.5 -483.96,7.6 -254.72,48 -523.49,159.5 -622.92,419.8 -102.26,267.7 197.95,353.2 364.49,496.5 47.99,41.4 93.34,86 135.99,134 437.4,493.3 117.77,1096.4 -443.97,1084.4 -349.41,-7.4 -677.98,-303.2 -1031.62,-438.4 -179.82,-68.7 -385.34,-130.2 -616.56,-184.4 81.19,-161.6 169.03,-307.1 263.53,-436.6 -403.69,-1017 -287.23,-2176 327.84,-3097.5 C 8184.95,9337.5 9355.49,8771 10568.1,8869 c 1320.3,146.9 2478.6,947.2 3083.1,2130.2 267.8,524 411,1092.1 430.6,1662.9 -198.3,21 -417.2,18.5 -657.3,-23.9 5.3,173.9 224.4,276.4 656.9,307.4 -8.3,221.9 -35.3,443.2 -80.9,661.5 -235.6,-33.3 -492.7,-105.1 -762.4,-245.9 -53,187.2 175.9,370 686.6,548.3 -55.2,188.4 -124.6,373.7 -208.4,554 -261.3,-61.3 -547.5,-172 -837.7,-379.3 -80.8,183.5 135.3,403.6 648.1,660.4 11.3,6.5 23,12.8 34.8,19.1 -130.2,235.2 -379.8,380.2 -649.7,375.7 -276.6,-4.7 -526.8,-165.7 -645.6,-415.5 -322.7,-678.4 682.2,-1142.8 318.3,-2433 834.1,-149.6 678.6,-1348.1 -648.9,-1636.5 -467.9,-623.1 -1357.2,-853.8 -2178.76,-388.1 1078.56,152.3 1498.76,444.8 1260.66,877.6 -116.9,180.7 -274.5,193.9 -472.8,39.6 -378.3,-35.8 -1169.13,-18.5 -1297.06,433 -30.94,109.2 -35.59,214.7 58.15,292.4 203.42,168.7 768.51,237 1045.91,260.7 111.3,9.5 99.9,-7.4 184.6,68.4 165.7,148.2 298.4,336.9 380,566.6 377.7,181.8 698.3,515.3 961.6,1000.6 -229.3,61.5 -432.8,129.4 -610.4,203.7 -349.2,146.3 -668.2,452.4 -1017.2,470.8 -561.13,29.7 -899.63,-563 -478.03,-1069.8 41.11,-49.4 85.04,-95.4 131.69,-138.2 z m 2235.84,-2067.5 c 23.3,104.5 47.4,314.6 34.5,628.5 355.1,225.8 792.1,-456.1 -34.5,-628.5 z m -3836.91,2614 c -2.24,-140.8 110.05,-256.6 250.77,-258.8 140.73,-2.3 256.61,110 258.84,250.7 2.22,140.8 -110.05,256.7 -250.78,258.9 -140.72,2.2 -256.62,-110.1 -258.83,-250.8 z m 1105.98,710.2 h -0.01 -0.01 l -0.4,0.4 h 0.01 c -697.04,785.8 -1167.02,209.9 -1891.4,-26 54.99,101.3 79.88,241.9 74.61,421.7 -333.17,441.4 -371.68,951.7 -115.52,1531.1 577.46,20.7 1028.23,-207.3 1352.35,-684.1 388.88,193 817.11,186.2 1199.7,-18.9 339,466.3 796.8,680 1373.3,641 237.7,-587.2 183.1,-1096.1 -163.8,-1526.7 -11,-179.5 9.4,-320.8 61.2,-423.9 -716.5,258.7 -1168.1,849.2 -1889.61,85.8 z m 257.49,-1516.9 c -132.57,149.6 -425.53,154.2 -562.77,8.9 -147.97,-156.6 60.71,-435.4 274.03,-443.6 v 0 h 0.42 0.42 v 0 c 213.48,1.5 430.87,273.5 287.9,434.7 z m 825.54,772.1 c -2.3,-140.7 -118.1,-253 -258.9,-250.8 -140.7,2.3 -252.97,118.1 -250.74,258.9 2.22,140.7 118.14,253 258.84,250.8 140.7,-2.3 253,-118.1 250.8,-258.9"
         style="display:inline;fill:#000000;fill-opacity:1;fill-rule:evenodd;stroke:none"
         id="path18" />
    </g>
  </g>
</svg>
